<?xml version="1.0" encoding="UTF-8"?>
<svg id="Layer_1" data-name="Layer 1" xmlns="http://www.w3.org/2000/svg" viewBox="0 0 792 612">
  <path d="M333.61,98.94l-19.71,2.55c-11.72.38-22.92,2.77-31.61,11.15l-8.82,8.5c-8.04,7.75-14.24,16.92-20.78,25.78-1.79,7.74-6.09,13.81-9.35,20.68-2.64,5.55-5.2,10.67-10.81,13.8-2.63,3.38-6.67,5.22-10.79,5.76-3.07,2.66-5.74,4.42-9.73,6.43-1.15,2.63-1.35,6.55-1.84,9.79l-2.39,15.75c-.74,4.86.83,10.79,1.08,15.84l.71,14.36c.34,6.88-1.85,14.3-.36,20.9l2.66,11.76c2.11,9.35,21.07,20.87,21.14,38.42,0,2.4-1.12,5.52.67,7.38,4.74,4.89,10.08,9.03,13.83,14.79,5.16,7.93,6.85,17.59,10.9,26.28l13.3,28.53,7.97,22.14c7.02,5.81,6.59,14.35,11.73,11.53,6.11-3.36,17.94-3.79,24.79-1.99l10.38-.88,5.63-1.09c18.91,9,14.12,24.44,17.39,31.49,1.17,2.53,2.6,4.47,3.27,7.11l2.24,8.83c2.27,3.88,8.05,6.79,12.48,5.85l11.99-2.54c5.19-1.1,8.98-4.08,14.39-1.84,3.08-2.06,7.26-5.03,11.66-4.37l16.82,2.54c.8.12,2.37,1.34,2.62,1.94,1.63,3.96-13.62,5.7-20.12,7.39s-11.35,6-17.05,8.95l-11.21,1.26c-8.3,2.65-19.52,3.35-22.46-1.61-2.08-3.52-4.46-5.9-7.75-8.38-4.61-3.48-2.94-13.74-7.41-23.23-6.38-13.56-16.42-18.49-14.93-28.02-6.1-4.05-6.81,2.24-12.51,5.01l-12.79,6.22c-1.37.67-4.59,1.19-5.92.54l-12.79-6.32c-3.07-1.52-7.76-3.01-9.61-5.9l-4.07-6.39-8.23-11.39c-.23-7.46-1.66-13.84-3.87-20.66l-4.66-14.38-3.45-10.87c-8.83-16.82-3.76-20.23-4.23-22.01-.83-3.14-9.32-3.91-13-8.02l-5.79-6.47c-2.11-2.36-.33-7.68.08-10.68.27-2.17.24-6.45-.61-8.2l-5.79-11.97c-1.93-3.99-11.99-9.7-12.41-14.51l-1.5-17.11c-.56-6.35-1.44-12.75-1.37-19.27.12-11.7-.66-22.78-1.87-34.37l.1-17.72c.08-15.3,11.13-18.07,15.78-25.35,2.34-3.66,3.46-6.05,6.87-8.52l4.54-3.29,18.06-21.35,5.36-5.06,6.12-6.53c2.97-3.16,8.07-4.18,11.62-6.48,5.52-3.58,9.26-9.15,14.33-13.38,10.5-8.76,21.7-8.89,29.43-12.44,10.87-4.99,21.58-8.99,33.49-10.82l36.93-5.67c10.29-1.58,20.66-2.85,31.15-1.88l39.54,3.66c11.38,1.05,22.06,2.25,32.89,5.96l21.73,7.44c15.98,5.47,25.24,16.16,34.82,29.31l5.58,7.65c5.81,3.62,11.65,6.65,15.69,12.07,8.57,11.52,10.58,25.39,9.64,39.57l.8,18.97-1.29,23.74c-.68,12.56,4.01,24.19,7.71,35.94,2.65,8.42,3.72,16.89,4.64,25.76,1.26,12.09-6.44,18.37.18,30.43,4.13,7.53,4.5,16.27.07,23.81-4.21,7.15-10.19,13.43-17.79,16.83-7.14,3.2.15,7.59-6.23,10.72-1.19,3.24.71,6.95,1.76,10.39l2.06,6.73c.88,2.89,1.73,4.29.13,7.1-4.95,8.63-10.8,2.7-22.55,6.46l-7.21,10.45c-2.99,4.33-8.23,7.68-13.87,5.92-10.76-3.34-13.23-13.24-20.76-10.41-4.83,12.61,1.02,23.88-8.88,32.24l-.3,8.79c.99,4.69,2.08,8.23,2.24,12.89l.31,9.15c.17,5.07-.38,9.62-3.55,13.7l-6.47-.4c-1.99-.12-5.13,3.32-7.1,3.7l-8.96,1.72c-5.3,1.02-10.71-.59-16.03-1.43-3.19,1.55-7.4,4.29-11.27,4.03l-14.95-.99c-3.77-.25-7.42-.5-9.25-5.52l23.87-9.48c5.16-2.05,8.57-3.74,14.79-1.52l7.92,2.83c6.22-.98,12.27-3.02,17.44-6.16l-1.42-15.75c-.43-4.83-1.44-8.32.05-13.15.88-2.85,1.52-6.31,3.06-8.84,2.47-4.07,1.61-7.8,2.23-12.31.82-5.9,3.6-12.38,7-17.37,3.36-4.92,10.56-7.78,16.37-7.43,9.76.58,13.51,13.96,23.11,9.97,2.3-.96,1.82-5.38.57-7.68-1.87-3.45-.99-9.34,2.5-11.44,3.5-2.11,7.95-3.06,12.04-4.04-.57-7,.35-13.43,1.46-20.52.48-3.08-.63-7.49.7-10.4,3.59-7.86,7.01-8.81,9.35-13.73,1.31-2.74,3.66-6.57,2.93-9.72-2.06-8.95-4.46-18.09-.65-26.64l9.26-20.76c2.73-6.12,4.87-13.17,3.77-19.87l-3.44-21.02-2.97-19.29-4.18-32.77c-.84-6.6.92-13.68-1.38-20.08l-5.09-8.4c-1.06-1.74-3.08-3.31-4.68-4.81-3.4-3.21-6.79-6.69-11.28-8.45-5.06-1.98-9.8-4.6-12.79-9.32-3.03-4.79-6.28-9.29-10.35-13.36-4.21-4.21-6.64-9.08-10.08-13.77-3.7-5.05-11.54-6.69-16.36-10.37-1.71-1.3-3.98-3.59-5.57-4.11-8,2.5-10.05-2.12-14.49.03l-13.87-3.95c-2.65-.75-5.08-2.19-7.05-4.19l-35.35-2.24c-9.47-.6-18.99.96-28.11,3.32l-35.62,9.24-16.96,2.92Z"/>
  <path d="M508.81,377.78c-17.4,5.5-39.68-.16-54.85-10.07-10.07-6.58-16.84-16.34-24.33-25.45-5.09-6.19-6.06-14.22-6.39-22.1l-.75-17.79c-.1-2.35,1.14-7.23,2.86-8.67,4.27-3.33,9.63-4.11,14.76-5.21l33.84-7.23c14.77-3.16,24.4-1.95,35.16,8.4,8.63,1.28,14.72,7.56,13.76,16.33,1.78,2.45,3.89,5.45,4.19,8.44l2.51,25.02c.46,4.61-.71,9.19-3.46,12.97l-12.4,17.09c.75,3.89-1.2,7.1-4.89,8.27Z"/>
  <path d="M308.66,391.99c-6.19-1.6-9.68-4.1-13.47-8.6-5.73-6.8-8.84-14.1-11.36-22.7l-6.6-22.56c-1.23-4.21-1.36-9.01.14-13.21,2.6-7.25,6.59-13.97,12.79-18.73,10.02-7.7,41.78-7.32,56.98-5.5,20.71,2.47,31.76,14.34,34.62,34.58,1.05,7.47-2.03,12.91-6.62,17.94l-15.89,17.4c-9.28,10.16-19.74,19.24-33.5,22.37-5.68,1.29-11.69.41-17.09-.99Z"/>
  <path d="M427.6,415.74l-5.63-1.07-15.47-2.06c-2.97-.4-11.13,9.96-17.96,6.91-3.39-1.51-6.33-5.86-6.55-9.67-.39-6.73,2.66-12.22,6.01-17.72,8.88-12.03,13.12-26.01,12.27-41.06l.46-2.6c.12-.71,2.11.66,2.54,1.32l6.18,9.44,17.66,19.62,13.04,16.08c4.86,5.99,4.16,13.41-1.92,18.43-2.52,2.09-6.85,3.1-10.64,2.38Z"/>
  <path d="M427.74,267.74l-5.02,5.81-1.99,5.15c-.33.86-2.11,2.01-3.01,1.96s-2.58-1.11-2.68-2c-.33-2.92,3.55-7.53,7.59-9.86,1.52-3.67,2.99-6.63,7.65-6.84,9.81-.46,13.59-11.04,25.21-9.84l22.26,2.3c5.52.57,10.55,1.57,15.5,3.44,2.8-2.14,6.34-1.9,9.98-1.16,11.99,2.43,21.85,8.51,26.86,20.06l7.28,13.24c.16-8.14,3.28-13.26,7.67-19.29,2.02-2.78,3.49-8.23,3.6-11.91.1-3.23-.97-7.09-1.83-9.99l-2.87-9.78c-1.08-3.67-1.85-7.84-1.21-11.89.34-2.16,5.18-5.01,7.3-4.49,2.26.89,5.45,2.69,7.02,3.87l3.08,6.67c1.43,3.11-.12,8.51-1.58,11.27l-6.66,1.75c2.15,3.66,5.39,6.94,6.46,10.58,2.99,10.15-1.06,19.37-5.52,28.08-1.91,3.73-1.92,8.99-4.39,12.34-1.09,1.48-5.59,2.4-6.77,1.14l-5-5.31-9.79-15.53c-4.14-6.57-10.14-12.23-18.16-12.68l-9.85-.55-2.34,2.96c-.58.74-3.33.15-4.26-.38-3.59-2.02-8.28-2-12.52-1.43-13.97,1.89-25.34-3.56-35.39.38-5.18,2.03-10.94,2.38-16.6,1.94Z"/>
  <path d="M327.12,278.72c-16.59.79-18.19,6.83-26.15,8.89-4.41,1.14-8.14,2.46-11.93,4.7-9.99,5.9-14.61-4.5-18.29-1.51l-9.15,7.41c-3.27,2.65-1.86,8.24-1.54,11.87l.74,8.47c-6.01,7.28,1.79,11.02-2.33,14.18.36,9.92,8.36,19.59,6.82,23.2-.4.95-2.69,1.59-3.72,1.39s-2.17-1.96-2.6-3.14c-1.38-3.77-3.31-5.88-5.48-8.99-1.71-2.46-2.47-6.77-4.58-9.47-7.32-9.38-7.41-19.66-11.83-26.99l-9.29-15.4-2.23-7.65c-2.04-3.12-2.6-6.03.13-9-1.4-1.22-3.72-3.6-4.31-5.21-.26-.71.81-2.65,1.53-2.8s2.85-.12,3.38.4l5.78,5.73c.55.54,1.3,2.65,1.14,3.39-.2.89-1.21,1.9-2.32,3.03l4.49,5.72c3.7-.73,6.85.28,8.26,3.34l9.52,20.6,4.21,9.86c3.4-5.77-.66-10.63-2.27-15.6s3.81-10.27,7.24-13.02l7.2-5.77c6.05-4.85,10.82,2.04,15.33-2.68,4.87-5.09,10.63-6.9,16.89-9.41,6.13-2.46,12.09-6.55,19.08-4.81l19.41,4.83c1.78.44,3.6,2.37,3.45,3.66l-16.58.79Z"/>
  <path d="M472.73,455.09c1.35,4.73,4.22,11.45.85,14.47-2.48,2.22-9.17-7.55-9.86-10.11l-4.95-18.26c-1.02-3.76-.43-7.44,1.26-11.13,1.64-.68,5.98-.07,6.39,1.56l2.59,10.43,3.72,13.04Z"/>
  <path d="M389.72,466.02l-6.14,3.9c-.08-2.65.44-5.03,1.01-7.36l-5.94-15.65,1.22-8.63c.18-1.31.85-3.26,1.6-3.96.85-.8,4.28-.65,4.55.48l1.87,7.82c1.63,6.78,9.32,18.65,1.83,23.41Z"/>
  <path d="M454.98,459.18c.35,2.83-.03,4.84-1.3,7.03-1.03,1.78-4.42,3.17-6.57,2.64-2.98-4.34-.75-9.41-.41-13.97.9-12.12-7.5-23.61-3.14-25.67.9-.43,3.06.5,3.47,1.42l3.94,8.91c2.78,6.29,5.87,11.47,4.02,19.64Z"/>
  <path d="M413.24,462.86c.44,4.82-4.67,7.35-8.55,6.34-.15-.99.31-3.31.6-4.32l-2.2-13.87-1.94-11.85c-.2-1.21,1.3-3.65,2.27-4.34s4.31-.24,5.02.79c2.05,3.56,3.16,9.18,3.55,13.59l1.24,13.65Z"/>
  <path d="M429.14,467.47l1.52-1.45c.41-.4-.35-1.69-.52-2.33l-1.83-7.04c-8.44-9.65-8.53-28.01-3.35-27.68.96.06,3.29,1.47,3.47,2.41l3.2,16.51c2.63,6.38,6.09,11.96,5.44,19.48l-7.93.09Z"/>
  <path d="M369.61,472.02l-6.1-.41-2.52-6.06c-1.59-3.82-3.6-6.29-4.88-10.3-2.6-8.1-2.62-16.75,3.34-16.34,3.92.27,1.52,9.98,6.29,19.36,2.34,4.6,3.78,8.8,3.87,13.74Z"/>
</svg>