<?xml version="1.0" encoding="UTF-8"?>
<svg id="Layer_1" data-name="Layer 1" xmlns="http://www.w3.org/2000/svg" viewBox="0 0 468.62 396.43">
  <path d="M401.84,392.57l-14.07,1.33-52.25-4.54c-7.07-.62-14.69.22-21.72,1.25l-27.22,4.01-10.23,1.81-40.2-8.22c-3.23-.66-6.67-1.11-9.63-2.5l-27.23-12.74-68.61,8.39c-15.39,1.88-29.73,3.25-44.94,6.53-1.68.36-5.01-.23-5.95-1.58l.19-66.04.91-112.18c.01-1.44.71-4.27,1.46-5.13.89-1.03,3.31-1.65,5.17-2.06,8.76-1.96,16.66-1.28,25.62-.61,7.07.53,14.56-.27,21.73-.22l27.98.18c5.58-5.72,10.46-10.68,15.34-16.53,8.51-10.2,18.36-17.57,28.2-26.37l28.12-25.15c6.45-5.76,10.98-11.71,14.81-19.37,7.05-14.08,11.86-28.13,13.42-44.08,2.26-23.18,2.82-33.04-3.94-55.36-.98-3.24-1.93-6.52-1.74-10.12,8.9-4.17,19.89-5.04,27.95,1.44,19.99,16.08,21.07,20.7,27.36,45.65,2.35,9.33,1.5,17.84.97,27.35-.57,10.29.36,20.66-.86,31.01l-2.68,22.64c-2.34,19.83.92,12.28,6.89,23.81l27.51-1.97,43.58-1.16c14.42-.38,28.03-.47,42.39.58,3.67.27,7.46,2.78,9.53,5.57,4.3,5.81,9.41,9.19,14.64,14.27,5.64,5.48,11.55,15.38,12.46,23.3.97,8.36-3.43,15.84-1.28,24.21,4.7,18.38,5.09,10.94-6.77,32.56-8.62,15.73,2.69,25.53.44,41.41-1.3,9.16-19.4,22.05-23.67,31.5.65,15.89-2.34,53.91-15.24,63.14-5.05,3.62-12.07,3.37-18.48,3.98ZM420.94,369.74c3.12-6.35,5.12-16.11,4.54-23.02-2.02-23.93,4.05-23.27,17.6-40.99,3.74-4.9,7.24-9.48,10.32-15.04l-2.3-13.2c-3.53-20.23-12.22-14.52,7.33-37.97,3.26-3.91,3.93-7.61,1.7-12.39-2.17-4.65-2.26-9.52-2.45-14.73l-.73-19.91-24.57-31.35c-2.88-1.23-7.99-3.53-10.88-4.16-18.98-.97-36.66.73-55.5,2.24l-51.23,4.1c-4.03.32-5.63-2.4-8.1-4.76-2.75-2.64-6.2-4.97-6.39-9.44-.29-6.58-.14-12.95.72-19.55l6.42-49.01c.19-1.46-.88-5.15-.84-6.56.2-8.38,0-16.37-2.42-24.28l-8.94-29.32c-10.94-10.01-16.63-16.96-34.37-14.26,9.74,17.24,10.56,39.4,7.72,57.44-2.69,17.08-5.28,33.77-13.26,49.31-4.04,7.88-9.8,14.57-14.75,21.95-2.32,3.46-4.78,5.86-7.77,8.66l-29.73,27.87c-10.51,9.85-20.89,18.87-30.78,29.19-4.51,4.71-10.13,7.1-16.65,6.55-5.1-.43-10.14.48-15.25.52l-31.62.25c-7.3.06-14.42-.12-21.24-.78l-1.63,175.29c38.3-7.39,75.05-13.87,113.4-16.33,6.84-.44,13.4,5.52,19.24,7.84,2.87,1.49,6.6,4.3,9.43,4.84,17.64,3.36,34.15,8.94,52.11,10.5,3.53.31,33.32-5.3,46.72-6.16,10.15-.65,20.03-2.34,30.06-1.46l22.35,1.95c8.21.72,17,3.25,25.22.7,6.18-1.92,13.53-8.43,16.53-14.54Z"/>
  <path d="M69.77,190.32v204.41H0v-204.41h69.77ZM40.8,219.84c0-5.45-4.42-9.87-9.87-9.87s-9.87,4.42-9.87,9.87,4.42,9.87,9.87,9.87,9.87-4.42,9.87-9.87Z"/>
</svg>